<svg width="24" height="24" viewBox="0 0 24 24" fill="none" xmlns="http://www.w3.org/2000/svg">
<path d="M23.625 13.5207V10.4793C23.625 10.3902 23.5932 10.3039 23.5354 10.236C23.4775 10.1682 23.3974 10.1232 23.3093 10.1091L21.4489 9.81127C21.208 8.76652 20.7983 7.77834 20.2283 6.86733L21.334 5.34023C21.3863 5.26801 21.4111 5.1795 21.4041 5.09061C21.397 5.00171 21.3585 4.91824 21.2955 4.85517L19.1449 2.70464C19.0818 2.64159 18.9983 2.60308 18.9094 2.59601C18.8205 2.58894 18.732 2.61377 18.6598 2.66606L17.1327 3.7717C16.2214 3.20161 15.2333 2.79197 14.1887 2.55113L13.8909 0.69075C13.8768 0.60268 13.8318 0.522516 13.764 0.464647C13.6961 0.406779 13.6098 0.374995 13.5206 0.375H10.4793C10.3901 0.375004 10.3039 0.406787 10.236 0.464645C10.1681 0.522503 10.1231 0.60265 10.109 0.690703L9.81122 2.55108C8.76652 2.79192 7.77834 3.20156 6.86723 3.77161L5.34019 2.66602C5.26794 2.61373 5.17943 2.58889 5.09053 2.59596C5.00163 2.60303 4.91815 2.64154 4.85508 2.70459L2.7045 4.85512C2.64144 4.91819 2.60292 5.00167 2.59586 5.09058C2.5888 5.17949 2.61365 5.268 2.66597 5.34023L3.77161 6.86728C3.20133 7.77891 2.79169 8.76689 2.55103 9.81122L0.690656 10.109C0.602603 10.1231 0.522462 10.1682 0.464612 10.236C0.406762 10.3039 0.374991 10.3902 0.375 10.4793V13.5207C0.374994 13.6098 0.406774 13.6961 0.464634 13.764C0.522493 13.8318 0.602646 13.8768 0.690703 13.8909L2.55108 14.1887C2.79192 15.2334 3.20161 16.2216 3.77166 17.1327L2.66602 18.6598C2.61371 18.732 2.58886 18.8205 2.59593 18.9094C2.60299 18.9983 2.6415 19.0818 2.70455 19.1448L4.85512 21.2954C4.9182 21.3584 5.00167 21.3969 5.09057 21.404C5.17948 21.4111 5.26799 21.3862 5.34023 21.3339L6.86728 20.2283C7.77891 20.7986 8.76703 21.2083 9.81127 21.4489L10.1091 23.3092C10.1232 23.3973 10.1682 23.4774 10.236 23.5353C10.3039 23.5932 10.3902 23.6249 10.4793 23.625H13.5207C13.6098 23.6249 13.6961 23.5932 13.764 23.5353C13.8318 23.4774 13.8768 23.3973 13.8909 23.3092L14.1581 21.6403C15.1349 22.8498 16.6291 23.625 18.3012 23.625C21.2368 23.625 23.625 21.2368 23.625 18.3012C23.625 16.6291 22.8498 15.1348 21.6403 14.1581L23.3092 13.8909C23.3973 13.8769 23.4775 13.8319 23.5354 13.764C23.5932 13.6961 23.625 13.6099 23.625 13.5207ZM18.6986 12.9923C18.5664 12.9824 18.4338 12.9775 18.3012 12.9775C17.4962 12.9775 16.7325 13.1574 16.0478 13.4787V12.8857C16.0478 11.9996 15.3768 11.325 14.2068 11.0348C13.805 10.9351 13.3971 10.8619 12.9857 10.8155C13.6067 10.3796 14.0278 9.54591 14.0278 8.59055C14.0278 7.29839 13.2508 6.49566 12 6.49566C10.7492 6.49566 9.97223 7.29839 9.97223 8.59055C9.97223 9.54384 10.3915 10.376 11.0104 10.8126C10.5989 10.8582 10.1911 10.9327 9.79012 11.0356C8.60494 11.3402 7.9522 11.9973 7.9522 12.8857V16.2221C7.9522 16.3216 7.99171 16.417 8.06204 16.4873C8.13236 16.5576 8.22775 16.5971 8.3272 16.5971H13.2572C13.0759 17.1324 12.9775 17.7055 12.9775 18.3012C12.9775 18.4349 12.9825 18.5674 12.9923 18.6986C12.6637 18.7469 12.3321 18.7711 12 18.7712C8.26636 18.7712 5.22881 15.7336 5.22881 12C5.22881 8.26627 8.26636 5.22877 12 5.22877C15.7336 5.22877 18.7712 8.26636 18.7712 12C18.7712 12.3318 18.7468 12.6643 18.6986 12.9923ZM14.0038 13.2777C13.9044 13.2777 13.809 13.3172 13.7386 13.3875C13.6683 13.4578 13.6288 13.5532 13.6288 13.6527V15.7516C13.6115 15.7832 13.5946 15.8151 13.578 15.8471H10.3711V13.6527C10.3711 13.5532 10.3316 13.4578 10.2613 13.3875C10.1909 13.3172 10.0955 13.2777 9.99609 13.2777C9.89664 13.2777 9.80125 13.3172 9.73093 13.3875C9.6606 13.4578 9.62109 13.5532 9.62109 13.6527V15.8471H8.70216V12.8857C8.70216 12.2277 9.3953 11.9114 9.97678 11.7619C11.2952 11.4229 12.6575 11.4232 14.0262 11.7627C14.5011 11.8805 15.2977 12.183 15.2977 12.8857V13.908C14.9622 14.1381 14.6539 14.4057 14.3788 14.7055V13.6526C14.3788 13.5532 14.3393 13.4578 14.269 13.3875C14.1986 13.3172 14.1033 13.2777 14.0038 13.2777ZM12 10.3877C11.2954 10.3877 10.7222 9.58148 10.7222 8.5905C10.7222 7.42031 11.5228 7.24561 12 7.24561C12.4772 7.24561 13.2778 7.42036 13.2778 8.5905C13.2778 9.58153 12.7045 10.3877 12 10.3877ZM22.875 18.3012C22.875 20.8232 20.8232 22.875 18.3012 22.875C15.7793 22.875 13.7275 20.8232 13.7275 18.3012C13.7275 15.7792 15.7793 13.7275 18.3012 13.7275C20.8232 13.7275 22.875 15.7793 22.875 18.3012ZM22.875 13.2009L21.0773 13.4887C20.9853 13.5035 20.9021 13.5522 20.844 13.6251C20.4035 13.3845 19.931 13.2079 19.4407 13.1007C19.4942 12.7362 19.5211 12.3684 19.5212 12C19.5212 7.85278 16.1472 4.47881 12 4.47881C7.85273 4.47881 4.47877 7.85283 4.47877 12C4.47877 16.1472 7.85278 19.5212 12 19.5212C12.368 19.5212 12.7367 19.4941 13.1006 19.4407C13.2079 19.931 13.3845 20.4036 13.6251 20.8441C13.5521 20.9022 13.5035 20.9854 13.4887 21.0774L13.2009 22.875H10.7991L10.5113 21.0773C10.4992 21.0019 10.4644 20.932 10.4116 20.8769C10.3587 20.8219 10.2903 20.7842 10.2154 20.7691C9.08686 20.5407 8.02594 20.1009 7.06214 19.4618C6.99851 19.4196 6.92352 19.3979 6.8472 19.3994C6.77088 19.401 6.69685 19.4258 6.63502 19.4706L5.15939 20.539L3.46106 18.8407L4.52944 17.365C4.57422 17.3031 4.59906 17.2291 4.60063 17.1528C4.60221 17.0764 4.58044 17.0014 4.53825 16.9378C3.89944 15.9747 3.45956 14.9138 3.23095 13.7846C3.2158 13.7097 3.17817 13.6413 3.12309 13.5884C3.068 13.5356 2.99809 13.5008 2.9227 13.4887L1.125 13.2009V10.7991L2.92266 10.5113C2.99805 10.4992 3.06797 10.4644 3.12306 10.4116C3.17814 10.3587 3.21577 10.2903 3.23091 10.2154C3.45933 9.08681 3.89916 8.02594 4.5382 7.06219C4.58041 6.99856 4.60219 6.92356 4.60061 6.84722C4.59904 6.77088 4.57419 6.69685 4.52939 6.63502L3.46102 5.15944L5.15934 3.46106L6.63497 4.52944C6.69681 4.57421 6.77085 4.59904 6.84718 4.60061C6.92352 4.60217 6.99851 4.5804 7.06214 4.5382C8.02523 3.89944 9.08616 3.45956 10.2154 3.23091C10.2902 3.21574 10.3587 3.17811 10.4115 3.12303C10.4644 3.06795 10.4992 2.99804 10.5113 2.92266L10.7991 1.125H13.2009L13.4887 2.92266C13.5007 2.99805 13.5355 3.06796 13.5884 3.12304C13.6413 3.17812 13.7097 3.21576 13.7845 3.23091C14.9135 3.45952 15.9744 3.89939 16.9378 4.5382C17.0014 4.58038 17.0764 4.60214 17.1528 4.60057C17.2291 4.59899 17.3031 4.57416 17.3649 4.52939L18.8406 3.46102L20.5389 5.15939L19.4706 6.63502C19.4258 6.69685 19.4009 6.77089 19.3994 6.84722C19.3978 6.92356 19.4196 6.99855 19.4618 7.06219C20.1005 8.02519 20.5403 9.08611 20.769 10.2154C20.7842 10.2902 20.8218 10.3587 20.8769 10.4115C20.932 10.4644 21.0019 10.4992 21.0773 10.5113L22.875 10.7991V13.2009ZM19.8109 16.2369L17.5702 18.5102L16.7916 17.7316C16.5833 17.5233 16.3062 17.4085 16.0115 17.4085C15.7168 17.4085 15.4398 17.5232 15.2314 17.7316C15.1286 17.8338 15.0472 17.9554 14.9917 18.0893C14.9362 18.2232 14.9078 18.3667 14.9082 18.5117C14.9078 18.6566 14.9362 18.8002 14.9916 18.9341C15.0471 19.068 15.1286 19.1896 15.2314 19.2918L16.7932 20.8536C17.0083 21.0686 17.2907 21.1762 17.5732 21.1761C17.8558 21.1761 18.1383 21.0686 18.3534 20.8535C19.1499 20.057 20.776 18.3924 21.3738 17.7887C21.4761 17.6864 21.5571 17.5648 21.6121 17.431C21.667 17.2972 21.695 17.1538 21.6942 17.0092C21.6942 16.8645 21.6655 16.7213 21.6097 16.5878C21.554 16.4543 21.4723 16.3331 21.3695 16.2314C20.939 15.8032 20.2403 15.8052 19.8109 16.2369ZM20.8414 17.2605C20.2412 17.8666 18.6165 19.5299 17.823 20.3233C17.6853 20.461 17.4612 20.461 17.3235 20.3233L15.7618 18.7615H15.7617C15.7288 18.7288 15.7027 18.6898 15.685 18.647C15.6672 18.6041 15.6581 18.5581 15.6583 18.5117C15.6583 18.4174 15.695 18.3287 15.7618 18.262C15.7945 18.2291 15.8334 18.203 15.8763 18.1852C15.9191 18.1675 15.9651 18.1584 16.0115 18.1585C16.1059 18.1585 16.1945 18.1953 16.2613 18.262L17.307 19.3077C17.3773 19.378 17.4727 19.4175 17.5721 19.4175H17.5735C17.623 19.4173 17.6719 19.4074 17.7175 19.3882C17.7631 19.369 17.8044 19.341 17.8392 19.3057L20.3438 16.7647C20.4804 16.6273 20.7032 16.6268 20.8406 16.7633C20.8734 16.7957 20.8995 16.8344 20.9172 16.8769C20.935 16.9195 20.9442 16.9652 20.9442 17.0113C20.9444 17.1051 20.9081 17.1934 20.8414 17.2605Z" fill="white"/>
</svg>
