<svg width="24" height="24" viewBox="0 0 24 24" fill="none" xmlns="http://www.w3.org/2000/svg">
<path d="M23.9844 13.4885C23.9999 13.4189 23.9962 13.3463 23.9736 13.2786C23.6993 9.31539 20.4199 6.23156 16.4474 6.20111C15.1215 1.75672 10.4438 -0.771426 5.99936 0.554443C1.55492 1.88031 -0.973177 6.55805 0.352643 11.0025C0.697629 12.1589 1.28779 13.2273 2.08294 14.1351C2.87808 15.0429 3.85953 15.7686 4.96044 16.2629C4.17257 16.6844 3.44062 17.2029 2.78169 17.8064L1.64051 18.8524C1.15192 19.3002 1.11882 20.0592 1.56661 20.5478C1.61666 20.6025 1.67166 20.6523 1.73091 20.6968L3.01728 21.6616C4.86891 23.0444 7.11692 23.7937 9.42793 23.7983H10.5727C12.8835 23.7935 15.1311 23.0442 16.9826 21.6616L17.4354 21.322C21.199 20.8123 24.0049 17.5966 24 13.7985C24 13.6937 23.9884 13.5921 23.9844 13.4885ZM21.8868 9.79863C22.6109 10.7848 23.0533 11.9492 23.1668 13.1674L22.8276 13.337L20.8637 12.0278L21.5017 9.79863H21.8868ZM19.1805 7.60068C19.9368 7.93944 20.6251 8.41316 21.2117 8.99865H21.2001C21.1131 8.99871 21.0286 9.02709 20.9592 9.07949C20.8899 9.13188 20.8395 9.20545 20.8157 9.28904L20.0661 11.9122L18.7809 12.505L16.8002 11.1846V9.60704L19.0297 8.04707C19.0989 7.9982 19.1507 7.92865 19.1778 7.84844C19.2049 7.76822 19.2059 7.68147 19.1805 7.60068ZM10.1455 9.49184C10.1026 9.52689 10.0675 9.57048 10.0423 9.61983C10.0377 9.63414 10.0338 9.6487 10.0307 9.66343L8.96595 8.59866L10.2367 7.32789C10.5747 7.63516 10.9371 7.91447 11.3203 8.16307H11.3195C10.8779 8.55893 10.484 9.00486 10.1455 9.49184ZM9.61913 10.3826C9.16553 11.2801 8.89611 12.2593 8.82675 13.2626C8.45669 12.2152 7.88088 11.2525 7.13319 10.431L8.39956 9.16305L9.61913 10.3826ZM10.5635 10.3274L10.8835 10.4874L11.5291 12.101L9.92032 13.7117L9.61153 13.5573C9.65079 12.4176 9.97831 11.3063 10.5635 10.3274ZM9.82113 14.5545C9.89623 14.592 9.98121 14.6049 10.0641 14.5914C10.1469 14.5779 10.2234 14.5387 10.2827 14.4793L12.0963 12.6662L13.6694 13.2954L14.4154 15.9061C14.4227 15.9263 14.4318 15.9459 14.4426 15.9645C13.0485 15.327 11.5333 14.9975 10.0003 14.9985C9.90592 14.9985 9.81193 15.0025 9.71753 15.0049L9.71673 15.0029C9.68473 14.8237 9.65433 14.6429 9.63673 14.4621L9.82113 14.5545ZM13.9534 12.549L12.3079 11.8906L11.5719 10.0506C11.5355 9.95948 11.4669 9.88489 11.3791 9.84103L11.0191 9.66023C11.7033 8.76969 12.5966 8.06161 13.6198 7.59868C13.5945 7.67947 13.5954 7.76622 13.6225 7.84644C13.6496 7.92665 13.7015 7.9962 13.7706 8.04507L16.0002 9.60704V11.1846L13.9534 12.549ZM16.4002 11.8786L18.2937 13.1438C18.2969 13.1522 18.2961 13.161 18.3001 13.1694C18.3075 13.1832 18.3158 13.1966 18.3249 13.2094L17.6985 15.3985H15.1018L14.465 13.1694L16.4002 11.8786ZM18.2213 7.25389V7.25589L18.3253 7.56428L16.4002 8.91025L14.475 7.56228L14.579 7.25389C15.7693 6.91365 17.0311 6.91365 18.2213 7.25389ZM15.625 6.23871C14.3091 6.3748 13.052 6.85441 11.9799 7.62948C11.5607 7.37869 11.1666 7.08816 10.8031 6.7619L14.0474 3.51877C14.7574 4.30538 15.2947 5.2319 15.625 6.23871ZM13.477 2.95599L10.2371 6.19591C9.10454 4.94018 8.4246 3.34166 8.30556 1.65482L8.25916 1.00923C10.1826 0.97159 12.0483 1.66765 13.477 2.95599ZM7.46158 1.06763L7.50758 1.71162C7.63963 3.59082 8.40161 5.37056 9.67033 6.7631L8.40036 8.03307L3.32367 2.95599C4.47613 1.91624 5.92099 1.25687 7.46158 1.06763ZM2.75809 3.52157L7.83477 8.59866L6.568 9.86543C5.17415 8.59719 3.39325 7.83619 1.51332 7.70548L0.868931 7.65948C1.05842 6.1188 1.71807 4.67395 2.75809 3.52157ZM0.810932 8.45746L1.45652 8.50346C3.14385 8.62137 4.7433 9.30015 6.00041 10.4318L2.75689 13.6757C1.4689 12.2467 0.773139 10.3809 0.810932 8.45746ZM3.31807 14.2469L6.568 10.9986C7.59871 12.1471 8.25358 13.5832 8.44476 15.1145C7.59134 15.2395 6.7563 15.4679 5.95801 15.7945C4.98244 15.4625 4.08435 14.936 3.31807 14.2469ZM17.8453 20.0072C17.8286 20.0254 17.8103 20.042 17.7905 20.0568L16.5022 21.022C14.7895 22.3009 12.7102 22.994 10.5727 22.9984H9.42793C7.29041 22.994 5.21119 22.3009 3.49847 21.022L2.2117 20.0568C2.16468 20.0216 2.12602 19.9764 2.09844 19.9245C2.07087 19.8726 2.05507 19.8153 2.05217 19.7566C2.04927 19.6979 2.05933 19.6393 2.08165 19.5849C2.10397 19.5306 2.13799 19.4818 2.1813 19.4421L3.32047 18.3961C4.13481 17.6539 5.06769 17.0533 6.08041 16.6193C6.14114 16.608 6.19839 16.5827 6.24761 16.5453C9.78933 15.0825 13.8578 15.8042 16.6802 18.3961L17.8209 19.4421C17.8991 19.5138 17.9456 19.6136 17.9502 19.7196C17.9548 19.8256 17.917 19.929 17.8453 20.0072ZM17.219 17.8064C16.5258 17.1717 15.7519 16.631 14.9174 16.1985H17.8345L18.7145 17.0785L17.9937 18.5184L17.219 17.8064ZM18.6429 20.2148C18.7225 20.0436 18.7584 19.8553 18.7473 19.6668C18.7362 19.4783 18.6785 19.2955 18.5793 19.1348L19.4473 17.3985H21.7528L21.9308 17.7544C21.1159 18.8951 19.9671 19.7547 18.6429 20.2148ZM22.4228 16.9517L22.36 16.8197C22.3267 16.7529 22.2753 16.6968 22.2116 16.6577C22.148 16.6186 22.0747 16.5981 22 16.5985H19.3657L18.4493 15.6821L19.1545 13.2138L20.3645 12.6558L22.578 14.1313C22.6366 14.1703 22.7044 14.1932 22.7746 14.1976C22.8449 14.2021 22.915 14.1879 22.978 14.1565L23.1872 14.0517C23.1522 15.0633 22.891 16.0542 22.4228 16.9517Z" fill="white"/>
<path d="M13.6 18.9985H13.2V18.5985C13.2 18.4924 13.1579 18.3907 13.0829 18.3156C13.0078 18.2406 12.9061 18.1985 12.8 18.1985C12.6939 18.1985 12.5922 18.2406 12.5172 18.3156C12.4422 18.3907 12.4 18.4924 12.4 18.5985V18.9985H11.6V18.5985C11.6 18.4924 11.5579 18.3907 11.4829 18.3156C11.4079 18.2406 11.3061 18.1985 11.2001 18.1985C11.094 18.1985 10.9922 18.2406 10.9172 18.3156C10.8422 18.3907 10.8001 18.4924 10.8001 18.5985V18.9985H10.0001V18.5985C10.0001 18.4924 9.95794 18.3907 9.88293 18.3156C9.80792 18.2406 9.70618 18.1985 9.60009 18.1985C9.49401 18.1985 9.39227 18.2406 9.31726 18.3156C9.24224 18.3907 9.2001 18.4924 9.2001 18.5985V18.9985H8.40012V18.5985C8.40012 18.4924 8.35798 18.3907 8.28297 18.3156C8.20795 18.2406 8.10622 18.1985 8.00013 18.1985C7.89405 18.1985 7.79231 18.2406 7.71729 18.3156C7.64228 18.3907 7.60014 18.4924 7.60014 18.5985V18.9985H6.80016V18.5985C6.80016 18.4924 6.75802 18.3907 6.683 18.3156C6.60799 18.2406 6.50625 18.1985 6.40017 18.1985C6.29408 18.1985 6.19234 18.2406 6.11733 18.3156C6.04232 18.3907 6.00018 18.4924 6.00018 18.5985V18.9985H5.60019C5.4941 18.9985 5.39236 19.0406 5.31735 19.1156C5.24234 19.1906 5.2002 19.2924 5.2002 19.3985C5.2002 19.5045 5.24234 19.6063 5.31735 19.6813C5.39236 19.7563 5.4941 19.7984 5.60019 19.7984H6.00018V20.1984C6.00018 20.3045 6.04232 20.4063 6.11733 20.4813C6.19234 20.5563 6.29408 20.5984 6.40017 20.5984C6.50625 20.5984 6.60799 20.5563 6.683 20.4813C6.75802 20.4063 6.80016 20.3045 6.80016 20.1984V19.7984H7.60014V20.1984C7.60014 20.3045 7.64228 20.4063 7.71729 20.4813C7.79231 20.5563 7.89405 20.5984 8.00013 20.5984C8.10622 20.5984 8.20795 20.5563 8.28297 20.4813C8.35798 20.4063 8.40012 20.3045 8.40012 20.1984V19.7984H9.2001V20.1984C9.2001 20.3045 9.24224 20.4063 9.31726 20.4813C9.39227 20.5563 9.49401 20.5984 9.60009 20.5984C9.70618 20.5984 9.80792 20.5563 9.88293 20.4813C9.95794 20.4063 10.0001 20.3045 10.0001 20.1984V19.7984H10.8001V20.1984C10.8001 20.3045 10.8422 20.4063 10.9172 20.4813C10.9922 20.5563 11.094 20.5984 11.2001 20.5984C11.3061 20.5984 11.4079 20.5563 11.4829 20.4813C11.5579 20.4063 11.6 20.3045 11.6 20.1984V19.7984H12.4V20.1984C12.4 20.3045 12.4422 20.4063 12.5172 20.4813C12.5922 20.5563 12.6939 20.5984 12.8 20.5984C12.9061 20.5984 13.0078 20.5563 13.0829 20.4813C13.1579 20.4063 13.2 20.3045 13.2 20.1984V19.7984H13.6C13.7061 19.7984 13.8078 19.7563 13.8828 19.6813C13.9579 19.6063 14 19.5045 14 19.3985C14 19.2924 13.9579 19.1906 13.8828 19.1156C13.8078 19.0406 13.7061 18.9985 13.6 18.9985Z" fill="white"/>
</svg>
